<svg width="16" height="16" viewBox="0 0 16 16" fill="none" xmlns="http://www.w3.org/2000/svg">
<path opacity="0.4" fill-rule="evenodd" clip-rule="evenodd" d="M7.99348 2.58801H7.99998C8.93006 2.58801 9.83413 2.81117 10.6666 3.23057L8.49429 5.4234C8.33819 5.39714 8.16909 5.37745 7.99998 5.37745C6.56258 5.37745 5.39835 6.5523 5.39835 8.00281C5.39835 8.17346 5.41787 8.34411 5.44388 8.50163L3.03738 10.9301C2.38697 10.1687 1.82112 9.2492 1.37234 8.19315C1.3203 8.07501 1.3203 7.93061 1.37234 7.80591C2.76421 4.53734 5.24226 2.58801 7.99348 2.58801ZM12.2862 4.36669C13.2292 5.23306 14.0292 6.40134 14.6276 7.80591C14.6797 7.93061 14.6797 8.07501 14.6276 8.19315C13.2358 11.4617 10.7577 13.4176 7.99998 13.4176H7.99348C6.73819 13.4176 5.53494 13.0041 4.47478 12.2493L6.53656 10.1687C6.95283 10.4503 7.46014 10.6216 7.99998 10.6216C9.43087 10.6216 10.5951 9.44675 10.5951 8.00281C10.5951 7.45805 10.426 6.9461 10.1463 6.52605L12.2862 4.36669Z" fill="#9B9A97"/>
<path fill-rule="evenodd" clip-rule="evenodd" d="M12.2863 4.36638L13.47 3.17185C13.6652 2.98151 13.6652 2.66647 13.47 2.47613C13.2814 2.28579 12.9757 2.28579 12.7806 2.47613L12.1692 3.09309C12.1627 3.10621 12.1497 3.11934 12.1367 3.13247C12.1302 3.14559 12.1172 3.15872 12.1042 3.17185L11.5253 3.75665L9.46353 5.83724L2.48467 12.8791L2.46516 12.9054C2.33507 13.0957 2.36109 13.3589 2.52369 13.523C2.61475 13.6208 2.74483 13.6667 2.86841 13.6667C2.99199 13.6667 3.11556 13.6208 3.21312 13.523L10.1465 6.52574L12.2863 4.36638ZM8.00018 9.63705C8.89124 9.63705 9.61969 8.90195 9.61969 8.00276C9.61969 7.7271 9.55465 7.46457 9.43758 7.24141L7.24571 9.45327C7.46685 9.57141 7.72701 9.63705 8.00018 9.63705Z" fill="#9B9A97"/>
</svg>
