<svg width="16" height="16" viewBox="0 0 16 16" fill="none" xmlns="http://www.w3.org/2000/svg">
<path opacity="0.4" d="M14.6666 10.6268C14.6666 12.4868 13.1733 13.9935 11.3133 14.0002H11.3066H4.69992C2.84659 14.0002 1.33325 12.5002 1.33325 10.6402V10.6335C1.33325 10.6335 1.33725 7.68283 1.34259 6.19883C1.34325 5.92016 1.66325 5.76416 1.88125 5.9375C3.46525 7.19416 6.29792 9.4855 6.33325 9.5155C6.80659 9.89483 7.40659 10.1088 8.01992 10.1088C8.63325 10.1088 9.23325 9.89483 9.70659 9.50816C9.74192 9.48483 12.5113 7.26216 14.1193 5.98483C14.3379 5.81083 14.6593 5.96683 14.6599 6.24483C14.6666 7.7175 14.6666 10.6268 14.6666 10.6268" fill="#9B9A97"/>
<path d="M14.3173 3.78242C13.74 2.69442 12.604 1.99976 11.3533 1.99976H4.7C3.44934 1.99976 2.31334 2.69442 1.736 3.78242C1.60667 4.02576 1.668 4.32909 1.88334 4.50109L6.83334 8.46042C7.18 8.74042 7.6 8.87976 8.02 8.87976C8.02267 8.87976 8.02467 8.87976 8.02667 8.87976C8.02867 8.87976 8.03134 8.87976 8.03334 8.87976C8.45334 8.87976 8.87334 8.74042 9.22 8.46042L14.17 4.50109C14.3853 4.32909 14.4467 4.02576 14.3173 3.78242" fill="#9B9A97"/>
</svg>
