<svg width="123" height="40" viewBox="0 0 123 40" fill="none" xmlns="http://www.w3.org/2000/svg">
<path fill-rule="evenodd" clip-rule="evenodd" d="M17.123 26.2619C17.1301 27.2535 17.0377 27.1241 16.5328 27.6199C16.3479 27.7995 15.7222 28.4821 15.516 28.5755C14.7053 27.9217 15.0538 27.8283 15.4093 26.2763C15.58 25.529 15.7933 24.3363 16.0422 23.6106C16.3053 23.6321 16.3195 23.7255 16.5684 23.7615C16.8457 23.7902 16.9452 23.7112 17.2937 23.7615C17.5781 24.3506 17.5568 25.4787 17.3506 25.7302C17.1586 25.9673 17.123 25.8164 17.123 26.2619ZM19.7896 0C30.7262 0 39.5863 8.95276 39.5863 19.9964C39.5863 21.2179 39.4797 22.4178 39.2663 23.5746C39.1241 23.2729 38.9535 23.0357 38.797 22.7196L39.1454 22.6406L38.733 21.8789C38.8966 21.7783 38.5268 21.9795 38.8468 21.8286L38.9321 21.7927L38.6548 21.0814C38.733 21.0167 38.8397 21.0023 38.8752 20.8802L38.0717 19.4647C38.029 19.4863 38.0148 19.4863 38.0077 19.5078L37.5953 20.1689C37.4602 20.406 37.3393 20.6359 37.1971 20.8802C37.254 21.0167 37.3393 20.9951 37.3891 21.146L37.0477 21.7424C37.1615 21.8214 37.2682 21.8214 37.3037 21.9436L36.9268 22.6046C36.9553 22.619 36.9766 22.6118 36.9837 22.6262C37.0193 22.7268 36.9482 22.619 37.0691 22.6693C37.2184 22.734 37.1117 22.6549 37.2468 22.7412C37.1473 22.9998 36.998 23.3088 36.7989 23.4956L36.5358 23.0789C36.7349 22.9639 36.7349 23.0717 36.9055 22.9423C36.7064 22.5328 36.3722 22.0801 36.2229 21.6921L36.6993 21.649C36.6495 21.3688 36.1518 20.7006 36.0238 20.3557L36.4789 20.291L35.9598 19.2923L36.1375 19.1989C36.2086 19.1773 36.2158 19.1989 36.3153 19.1557C36.1944 18.7749 35.9242 18.545 35.8033 18.1642L36.1375 18.0277C36.0095 17.7115 35.2131 16.3104 35.0211 16.102C34.8362 16.3032 34.0256 17.7403 33.9189 18.0277L34.2389 18.1283L33.7198 19.1486L34.0967 19.2923L33.5421 20.2766L34.0185 20.3269L33.3145 21.6418C33.4354 21.6634 33.6487 21.649 33.7909 21.7496L33.6701 22.037C33.3714 21.9652 33.1723 21.7496 32.959 21.5772C32.4043 21.1029 32.7456 21.1101 32.8523 20.8802L32.255 19.8311C32.1128 19.5797 32.2123 19.7162 32.0061 19.4719L31.4728 20.3557C30.9679 20.1689 28.8987 18.3797 28.2373 17.8552C27.9956 17.6684 27.4338 17.1654 27.1423 17.0577C26.5236 17.5103 24.4401 19.7377 23.8001 20.3629C23.3166 20.8299 20.6287 23.589 20.4936 23.6249C20.3443 22.6909 20.3656 19.6587 20.3371 18.4947C20.3229 17.8983 20.1878 16.332 20.3727 15.9008C20.5291 15.5488 20.7069 15.1177 20.5078 14.7368C20.5007 14.7297 20.4936 14.7153 20.4865 14.7009L20.4509 14.6434C20.3727 14.5141 20.5078 14.5644 20.3158 14.4566C20.1594 14.3632 20.1523 14.3991 19.9816 14.4063C19.7469 14.7009 19.5478 14.7512 19.4341 15.0817C19.2705 15.5416 19.4056 15.5775 19.107 16.0086C18.9007 16.296 18.0617 17.187 17.8199 17.3235C17.4146 17.1583 17.0732 16.8134 16.7888 16.5475L16.3408 16.0733C16.1844 15.9296 15.9071 15.8865 15.7862 15.7068L16.1488 15.556C16.1773 15.3979 16.1773 15.1823 16.2199 15.0817C16.2697 14.9524 16.3764 14.8949 16.4688 14.7081C16.3693 14.3632 16.2768 14.471 16.3835 14.1261C16.6395 14.0327 16.7959 14.1045 17.0306 13.9105C17.0306 13.4076 16.6608 13.5297 16.3124 13.2998C16.2626 13.2639 15.7791 12.5813 15.7293 12.5166C14.8902 12.4807 14.4849 12.7968 14.0013 13.0986C14.0085 13.8171 14.2289 14.1261 13.8876 14.6434C13.5249 14.4782 13.5534 14.2482 12.9205 14.1477C12.5223 14.0902 12.6147 14.2195 12.3943 14.1908C12.2592 14.1692 12.1098 14.0327 11.9036 13.9752C11.6476 14.1548 11.8467 14.2195 11.5054 14.277C11.221 14.3273 11.0859 14.2626 10.8441 14.4279C10.5739 14.6147 10.7446 14.6722 10.2681 14.6506C9.0735 14.6075 9.4717 14.9021 9.22282 15.9152C9.12327 16.3391 9.00239 16.7559 8.89572 17.1726C8.6824 17.9917 8.43351 18.7965 8.24152 19.63C7.97842 20.7509 9.18727 20.5712 9.5997 21.2179C9.80592 21.534 10.1401 21.649 10.5383 21.7999C11.2565 22.0729 11.3632 21.7568 11.8752 21.7712C11.9534 22.3532 12.1596 22.9064 12.2236 23.4166C12.3089 24.1782 12.0601 24.48 12.3303 25.1626C11.9676 25.1985 11.7614 24.7961 11.541 24.5734C11.2779 24.3219 11.0717 24.1135 10.8086 23.8477C10.3179 23.3591 9.8628 22.7986 9.32949 22.3675C8.91706 22.5112 7.95709 23.2082 7.52332 23.4812C6.76246 23.9698 6.88334 24.1854 6.35714 25.2991C5.38294 27.3684 4.54386 29.4018 3.56967 31.4568C1.32263 28.2163 0 24.2644 0 19.9964C0 8.95276 8.86017 0 19.7896 0ZM39.245 23.6968C39.2166 23.8405 39.1952 23.9842 39.1597 24.1207C39.1028 24.0201 39.0317 23.9195 38.9819 23.8046L39.245 23.6968ZM38.8966 25.2272C38.8255 25.5075 38.7472 25.7805 38.6619 26.0535L38.5339 25.9458C38.5837 25.7518 38.7472 25.4715 38.8966 25.2272ZM38.6264 26.1685C36.0522 34.1944 28.5929 40 19.7896 40C13.4182 40 7.74376 36.9535 4.12432 32.2184L6.49935 28.2953C6.84068 27.7133 8.08508 25.5218 8.4264 25.1482L7.10378 30.2281C7.49488 29.8329 8.31263 28.2666 8.61129 27.7133C9.0735 26.8726 9.5357 25.8523 10.069 25.0692C10.3535 25.1985 13.0485 28.0007 13.5249 28.4678C14.0369 28.9635 13.8947 28.9132 13.6956 29.6605C13.5676 30.1204 13.4538 30.5515 13.3329 31.0257C13.1694 31.6436 12.6645 33.2387 12.6289 33.8135C13.2618 33.3752 18.6874 28.4749 19.6616 27.6558C19.9532 27.4043 20.33 27.0307 20.6927 26.8008L20.4367 31.3634C20.7496 31.2053 24.2695 27.2535 24.9308 26.4846C25.3788 25.9529 25.6276 25.8955 25.8481 25.0907C26.3387 23.316 26.8721 21.3257 27.4694 19.6156L38.6264 26.1685ZM14.8546 27.8283C14.6342 27.8139 14.1364 27.2463 14.0369 27.0954C13.8378 26.8008 14.2147 26.2332 14.3427 26.0032C14.5773 25.5865 14.3853 24.1279 14.9258 23.3591L15.7791 23.5315L15.0609 26.7218C14.9684 27.1026 14.8689 27.3972 14.8546 27.8283ZM16.2413 19.8743C16.4475 19.5006 16.0208 19.6084 16.1204 18.236C16.6395 17.963 16.5399 18.042 17.123 18.2648C17.4857 18.4013 17.9123 18.5234 18.3461 18.5163C18.851 18.3582 19.3558 17.0361 19.5265 16.6984C19.6758 16.4038 19.7114 16.2385 20.0598 16.1523C20.138 16.526 20.2091 20.1114 20.2305 20.8155C20.2518 21.6346 20.2731 22.4537 20.3016 23.2729C20.3158 23.898 20.2874 23.862 19.9603 24.1782C19.7398 24.3937 19.5621 24.5949 19.3416 24.7817C19.2136 22.3316 20.2874 22.2526 17.2652 21.4406C17.0377 21.3832 16.8315 21.34 16.675 21.1891C16.9097 20.9233 16.9808 20.6359 16.8813 20.3054C16.6679 19.5653 15.9639 20.3054 15.7791 20.4706L15.4733 20.3844C15.6368 20.2766 15.6084 20.1617 15.6155 19.8886C15.6297 19.2994 15.5657 18.5666 15.9142 18.0492C16.1986 18.3582 15.8431 19.3857 16.0564 19.7449C16.1346 19.8886 16.0706 19.8455 16.2413 19.8743Z" fill="white"/>
<path fill-rule="evenodd" clip-rule="evenodd" d="M59.3899 13.1202C59.3899 12.9765 59.1126 12.7035 59.0059 12.5238C57.8966 12.6172 56.1758 12.84 55.4789 12.9765C55.3012 13.0052 55.2087 13.3932 55.23 13.5082C55.2727 14.1908 55.0949 15.0602 55.0949 15.7428C55.0949 15.8362 55.2514 17.5032 55.2514 17.5894C55.2514 17.9774 54.3056 18.0708 54.1421 18.0708C53.5163 18.0708 52.7483 18.0277 52.3857 18.0277C52.2932 18.0277 52.023 18.1139 51.9519 18.1139C50.3306 18.1139 51.3475 17.3595 51.0275 15.4482C50.9137 14.9668 51.0062 12.4304 50.0818 12.4304C49.9893 12.4304 49.6267 12.6388 49.5129 12.6388C49.4276 12.6388 49.5129 12.5669 49.4276 12.5669C49.3351 12.5669 49.0649 12.6388 48.9725 12.6388C48.8587 12.6388 48.2258 12.4807 48.1334 12.4807C48.048 12.4807 48.0694 12.5885 47.9556 12.5885C47.8632 12.5885 47.9343 12.5669 47.8418 12.5669C47.7494 12.5669 47.5929 12.6388 47.2801 12.84C47.4152 17.3164 47.209 15.0602 47.3014 20.0324C47.2587 21.4263 47.0739 25.0764 47.0739 25.3279V26.3338C47.0739 26.4919 47.3654 27.3397 47.5503 27.3397C47.6427 27.3397 47.9129 27.3828 48.0267 27.3828C48.112 27.3828 48.2685 27.2679 48.3396 27.2679C48.6525 27.2463 49.1787 27.2463 49.264 27.2463C49.3564 27.2463 49.5627 27.4044 49.6693 27.4044C49.7618 27.4044 49.6978 27.3828 49.8115 27.3828C49.8969 27.3828 49.9467 27.4978 50.032 27.4978C50.3733 27.4978 50.7146 27.3397 50.9351 27.0379C51.0488 26.9014 51.0062 26.6787 50.9848 26.5421C50.9137 26.1973 51.0986 24.1207 51.0986 23.9842C51.0986 23.8693 50.9635 23.3232 50.9351 23.1364C50.8924 22.9064 50.8924 22.9783 50.8924 22.9064V21.5844C51.0275 21.5341 51.0062 21.2826 51.0275 21.1676C51.0986 20.9952 51.9804 20.9018 52.087 20.9018C52.3644 20.9018 52.8834 20.9664 53.1039 20.9664C53.2177 20.9664 53.3741 20.8587 53.4665 20.8587C53.559 20.8587 54.1705 20.9018 54.2559 20.9018C54.3483 20.9018 54.2559 20.8084 54.3696 20.8084C54.6683 20.8084 54.9812 20.8299 55.2727 21.0383C55.2514 21.2898 55.2514 21.5628 55.2514 21.8143C55.2514 22.0442 55.3225 22.5184 55.3225 22.5903C55.3225 22.7053 55.2514 22.7268 55.2514 22.8202V24.4369C55.2514 24.9614 55.1163 26.9014 55.0949 26.9517C55.23 27.1529 55.23 27.5912 55.7065 27.5912C56.1758 27.5912 56.4531 27.3397 56.5598 27.3397C56.6736 27.3397 56.5882 27.3828 56.6949 27.3828C56.8087 27.3828 56.7873 27.2894 56.8798 27.2894C56.9935 27.2894 58.0531 27.4978 58.1455 27.4978C58.7784 27.4978 59.141 26.2188 59.141 25.8093C59.141 25.7159 59.0273 25.1267 59.0273 24.8967C59.0699 23.9627 58.9775 23.7974 58.9775 23.3447V21.6993L59.141 17.0433C59.205 16.4038 59.3899 13.4148 59.3899 13.1202ZM64.1969 26.4487C64.1969 26.3553 63.948 24.5734 63.948 24.4872V20.6503C63.948 19.2132 63.9267 20.0539 63.9267 18.775C63.9267 15.5129 64.0191 17.6828 63.884 15.0602C63.8129 14.004 64.1969 12.9334 62.796 12.9334C62.6823 12.9334 62.412 13.0052 62.3267 13.0052H61.0112C60.7196 13.0052 60.3143 13.3429 60.2646 13.4363C60.357 13.616 60.4281 13.8028 60.4281 13.8962V15.2829C60.4281 17.0218 60.1579 20.0539 60.1579 21.1748C60.1579 24.3004 60.0654 24.6884 60.0654 24.9901C60.0654 25.1913 60.0228 27.4331 60.8334 27.4331C61.1747 27.4331 61.1961 27.1313 61.8005 27.1313C61.9143 27.1313 63.3649 27.2679 63.4502 27.2679C63.884 27.2679 64.1969 26.7649 64.1969 26.4487ZM77.4374 26.4056C77.4374 25.6512 72.218 18.775 72.218 18.775C72.218 18.4588 75.5387 15.7428 76.0365 14.6938C76.648 14.392 76.1289 14.5069 77.3449 13.3932C77.48 13.0699 77.032 12.4807 76.6907 12.4807C76.3992 12.4807 76.2143 12.4304 76.0152 12.5885C75.9014 12.5238 75.8801 12.4304 75.7876 12.4304C75.6952 12.4304 74.9485 12.5238 74.8419 12.5238C74.657 12.5238 74.4081 12.4304 74.273 12.4304C74.1806 12.4304 74.0028 12.5454 73.889 12.5669C73.5975 12.6172 73.1708 12.4089 72.7584 13.0483C72.4668 13.5298 71.7202 14.1692 71.3149 14.4423C70.7247 15.2829 68.5345 17.3595 68.5345 17.3595C68.4492 17.3595 68.4492 17.3379 68.4207 17.2948C68.3354 17.0002 68.5345 15.0099 68.5345 14.78C68.5345 14.6722 68.4492 13.4579 68.3781 12.8184C68.3781 12.6388 68.0368 12.4807 67.923 12.4807C67.8376 12.4807 66.2093 12.5669 65.3986 12.7322C65.2351 12.7538 65.1711 12.9765 65.0573 13.0915V22.4538L64.9222 25.9673C64.9222 26.4919 64.9862 27.2032 65.6902 27.2032C66.1168 27.2032 67.3826 27.0667 68.3781 26.9014C68.7834 26.0607 68.5843 25.7374 68.691 23.5459C68.7194 23.2944 68.7621 23.3878 68.7407 22.4969C68.7407 22.4107 69.1034 21.5413 69.5087 21.5413C69.9354 21.5413 73.3486 27.1816 73.7539 27.1816C73.889 27.1816 74.0455 27.1313 74.1379 27.1313C74.2303 27.1313 74.6357 27.2032 74.7281 27.2032C74.8134 27.2032 76.2427 27.0379 77.0107 26.9948C77.2311 26.9733 77.4374 26.5421 77.4374 26.4056ZM89.3196 25.7159C89.3196 25.5578 89.2556 23.6393 88.7792 23.6393C88.4379 23.6393 87.4424 23.9627 86.2264 23.9627C86.134 23.9483 86.07 23.8549 85.9775 23.8549C85.8638 23.8549 84.3278 23.9914 84.214 23.9914C84.1216 23.9914 84.1927 23.8764 84.0789 23.8764C83.9865 23.8764 83.9651 23.9914 83.8727 23.9914C83.8087 23.9914 83.6949 23.9052 83.6025 23.9052C83.0621 23.9124 82.2514 23.8693 81.9528 24.0704C81.7963 24.0058 81.6612 22.8849 81.6612 22.5472C81.6612 21.9724 81.5474 21.2467 82.223 21.2467L86.0415 21.1317C86.518 21.1317 86.6531 21.1964 86.9731 21.1964C87.0584 21.1964 87.5135 21.0383 87.6059 21.0383C87.7126 21.0383 87.6486 21.1317 87.7624 21.1317C87.8548 21.1317 87.7837 21.0383 87.8975 21.0383C87.9899 21.0383 87.9401 21.1317 88.0326 21.1317C88.2815 21.1317 88.4592 20.4204 88.4592 20.327V18.3869C88.3455 18.2504 88.2601 18.0924 88.189 17.9558C87.7126 18.0708 87.1508 17.9989 86.6744 18.0277C85.5438 18.0708 84.8042 18.2073 84.5554 18.2073C84.4629 18.2073 83.766 18.1139 83.6736 18.1139C83.5598 18.1139 82.4505 18.2073 82.3368 18.2073C82.2728 18.2073 81.6612 18.1355 81.6612 17.7978C81.6612 17.4098 81.5688 17.2014 81.5688 16.8852C81.5688 16.7918 81.6186 16.3607 81.6826 16.1739C81.9812 16.1739 82.0879 16.1092 82.2016 16.1092C82.2941 16.1092 82.3652 16.1739 82.4505 16.1739L86.2264 16.332C86.7242 16.332 87.2433 16.2673 87.9401 16.2673C88.3241 16.2673 88.957 15.9943 88.957 15.1249L88.9143 13.1202C88.6868 12.5454 88.0752 12.5454 87.7624 12.5454C86.2477 12.5454 85.8211 12.7035 85.5935 12.7035C84.8896 12.7035 84.4202 12.7538 84.0576 12.7538C83.9438 12.7538 82.8345 12.6172 82.7492 12.6172C81.8674 12.6172 80.8932 12.7035 80.6017 12.7035C80.5093 12.7035 78.9946 12.5669 78.9022 12.5669C78.8169 12.5669 78.0916 12.9334 78.0916 13.228C78.0916 13.4579 78.248 13.3214 78.248 14.2123V18.7103C78.248 19.0264 78.184 19.2348 78.184 19.4863V21.0598C78.184 22.9064 78.1342 23.6393 77.9778 26.7218C77.9564 26.9517 78.1627 27.2247 78.2693 27.3828C78.8382 27.3397 79.4924 27.2247 79.5848 27.2247C79.6702 27.2247 79.6275 27.3613 79.7413 27.3613C79.8337 27.3613 81.9812 27.2247 82.0665 27.2247C82.5003 27.2247 86.9944 27.2679 87.2646 27.2894C87.421 27.2894 87.6486 27.4331 87.741 27.4331C88.0112 27.4331 88.2815 27.4044 88.6441 27.4044C89.2983 27.4044 89.3196 26.1973 89.3196 25.7159ZM105.383 26.4487C105.383 26.3553 105.134 24.5734 105.134 24.4872V20.6503C105.134 19.2132 105.113 20.0539 105.113 18.775C105.113 15.5129 105.198 17.6828 105.063 15.0602C104.999 14.004 105.383 12.9334 103.982 12.9334C103.869 12.9334 103.598 13.0052 103.506 13.0052H102.197C101.906 13.0052 101.493 13.3429 101.451 13.4363C101.543 13.616 101.607 13.8028 101.607 13.8962V15.2829C101.607 17.0218 101.337 20.0539 101.337 21.1748C101.337 24.3004 101.245 24.6884 101.245 24.9901C101.245 25.1913 101.202 27.4331 102.013 27.4331C102.354 27.4331 102.375 27.1313 102.987 27.1313C103.101 27.1313 104.544 27.2679 104.637 27.2679C105.063 27.2679 105.383 26.7649 105.383 26.4487ZM117.877 15.3979C117.877 15.168 117.785 12.6172 117.109 12.6172C117.017 12.6172 115.388 12.7538 115.303 12.7538H107.282C107.189 12.7538 107.033 12.84 106.919 12.8687C106.784 12.8687 106.556 12.8184 106.464 12.8903C106.329 13.0052 106.244 13.2783 106.108 13.3429C106.151 13.4148 106.016 13.4363 106.016 13.5298C106.016 13.8028 106.244 14.004 105.966 15.9727C106.215 16.1092 106.308 16.3104 106.556 16.3104C106.784 16.3104 107.033 16.2673 107.367 16.2673C107.481 16.2673 107.417 16.1739 107.531 16.1739C107.616 16.1739 107.687 16.3104 107.78 16.3104C108.028 16.3104 108.547 16.2242 108.768 16.2242C108.86 16.2242 109.429 16.3607 109.493 16.3607C109.607 16.3607 110.055 16.2673 110.304 16.2889C110.219 19.3067 110.375 17.6612 110.375 19.6444V20.6934C110.375 21.4047 110.553 21.9508 110.553 22.0658C110.553 22.3388 110.375 25.0333 110.375 25.5793C110.375 26.0823 110.354 27.4762 111.186 27.4762C111.278 27.4978 111.548 27.3828 111.641 27.3828C111.755 27.3828 111.755 27.4331 111.84 27.4331C111.954 27.4331 112.067 27.3828 112.138 27.2894C112.16 27.3397 112.181 27.4331 112.295 27.4331C112.387 27.4331 112.771 27.2894 112.857 27.2894C112.97 27.2894 112.949 27.3828 113.042 27.3828C113.155 27.3828 113.084 27.2679 113.198 27.2679C113.269 27.2679 113.312 27.2894 113.383 27.2894C113.49 27.2894 113.788 27.2032 113.945 27.1816C113.923 27.0882 113.923 26.9948 113.966 27.0379C114.009 27.0379 114.236 26.808 114.236 26.693C114.236 26.42 113.987 25.6224 113.987 25.4644L113.874 21.7137C113.874 21.1604 114.058 20.4994 113.831 20.018V17.4098C113.831 16.6553 113.738 16.0589 114.442 16.0589C114.556 16.0589 116.177 16.1524 116.27 16.1524C116.384 16.1524 116.675 16.0158 116.768 16.0158C116.86 16.0158 116.945 16.0589 117.038 16.0589C117.287 16.0589 117.877 15.7644 117.877 15.3979ZM122.03 16.6338L121.987 16.6122L122.03 16.4972L122.08 16.5188L122.03 16.6338ZM121.916 25.5578C121.916 25.2416 121.944 24.2357 121.198 24.2357C121.084 24.2357 121.176 24.2788 121.063 24.2788C120.97 24.2788 120.992 24.1854 120.899 24.1854C120.814 24.1854 120.792 24.2788 120.7 24.2788C120.608 24.2788 120.586 24.1638 120.494 24.1638C120.38 24.1638 120.181 24.1854 120.088 24.1854C119.996 24.1854 120.024 24.2788 119.953 24.2573C119.456 24.2573 119.392 24.3938 119.299 24.3938C119.185 24.3938 119.256 24.3219 119.143 24.3219C118.688 24.3219 118.624 26.3769 118.624 26.6284C118.624 26.8799 119.029 27.4044 119.434 27.4044C119.477 27.4331 119.776 27.2894 120.359 27.2894C120.472 27.2894 120.586 27.3397 120.7 27.3397C120.792 27.3397 120.856 27.2032 120.928 27.2463C121.696 27.4978 121.916 25.9458 121.916 25.5578ZM122.35 13.2567C122.279 12.5454 121.873 12.452 121.582 12.452C121.468 12.452 120.835 12.6603 120.721 12.6603C120.629 12.6603 120.7 12.6172 120.586 12.6172C120.494 12.6172 120.316 12.7538 120.202 12.7753C119.932 12.8184 119.413 12.84 119.32 12.8903C117.742 13.6878 118.666 15.2183 118.304 16.7703L119.114 22.9783C119.683 23.2513 120.408 23.4813 120.472 23.4813C120.565 23.4813 120.792 23.3878 120.878 23.3878C121.56 23.3878 121.781 21.0814 121.781 20.9449V19.9174L122.215 15.9224L122.35 13.2567Z" fill="white"/>
</svg>
