<svg width="152" height="124" viewBox="0 0 152 124" fill="none" xmlns="http://www.w3.org/2000/svg">
<path fill-rule="evenodd" clip-rule="evenodd" d="M24.8011 94.0202C24.8011 93.7309 24.2427 93.181 24.0279 92.8193C21.7941 93.0074 18.3288 93.456 16.9255 93.7309C16.5675 93.7887 16.3813 94.5701 16.4243 94.8016C16.5102 96.1761 16.1522 97.9269 16.1522 99.3014C16.1522 99.4895 16.4673 102.846 16.4673 103.02C16.4673 103.801 14.5628 103.989 14.2334 103.989C12.9733 103.989 11.4268 103.903 10.6966 103.903C10.5104 103.903 9.96627 104.076 9.82308 104.076C6.55826 104.076 8.60593 102.557 7.96156 98.7082C7.73245 97.7388 7.9186 92.6312 6.05709 92.6312C5.87093 92.6312 5.14065 93.0508 4.91154 93.0508C4.73971 93.0508 4.91154 92.9061 4.73971 92.9061C4.55355 92.9061 4.00942 93.0508 3.82327 93.0508C3.59416 93.0508 2.31974 92.7325 2.13358 92.7325C1.96175 92.7325 2.00471 92.9495 1.7756 92.9495C1.58945 92.9495 1.73264 92.9061 1.54649 92.9061C1.36034 92.9061 1.04531 93.0508 0.415261 93.456C0.687329 102.47 0.272068 97.9269 0.458219 107.939C0.372303 110.746 0 118.097 0 118.603V120.629C0 120.947 0.587093 122.654 0.959397 122.654C1.14555 122.654 1.68968 122.741 1.91879 122.741C2.09063 122.741 2.40565 122.51 2.54884 122.51C3.1789 122.466 4.23853 122.466 4.41036 122.466C4.59651 122.466 5.01177 122.785 5.22656 122.785C5.41272 122.785 5.28384 122.741 5.51295 122.741C5.68478 122.741 5.78502 122.973 5.95685 122.973C6.64418 122.973 7.33151 122.654 7.77541 122.047C8.00452 121.772 7.9186 121.323 7.87564 121.048C7.73245 120.354 8.10475 116.172 8.10475 115.897C8.10475 115.666 7.83269 114.566 7.77541 114.19C7.68949 113.727 7.68949 113.872 7.68949 113.727V111.065C7.96156 110.963 7.9186 110.457 7.96156 110.226C8.10475 109.878 9.88035 109.69 10.0951 109.69C10.6536 109.69 11.6989 109.82 12.1428 109.82C12.3719 109.82 12.6869 109.603 12.8731 109.603C13.0592 109.603 14.2907 109.69 14.4625 109.69C14.6487 109.69 14.4625 109.502 14.6917 109.502C15.2931 109.502 15.9231 109.545 16.5102 109.965C16.4673 110.471 16.4673 111.021 16.4673 111.528C16.4673 111.991 16.6104 112.946 16.6104 113.09C16.6104 113.322 16.4673 113.365 16.4673 113.553V116.809C16.4673 117.865 16.1952 121.772 16.1522 121.873C16.4243 122.278 16.4243 123.161 17.3837 123.161C18.3288 123.161 18.8872 122.654 19.102 122.654C19.3311 122.654 19.1593 122.741 19.3741 122.741C19.6032 122.741 19.5602 122.553 19.7464 122.553C19.9755 122.553 22.1091 122.973 22.2952 122.973C23.5697 122.973 24.2999 120.397 24.2999 119.572C24.2999 119.384 24.0708 118.198 24.0708 117.735C24.1567 115.854 23.9706 115.521 23.9706 114.61V111.296L24.2999 101.92C24.4288 100.633 24.8011 94.6135 24.8011 94.0202ZM34.481 120.86C34.481 120.672 33.9798 117.084 33.9798 116.91V109.184C33.9798 106.29 33.9369 107.983 33.9369 105.407C33.9369 98.8384 34.123 103.208 33.851 97.9269C33.7078 95.7999 34.481 93.6441 31.6601 93.6441C31.431 93.6441 30.8868 93.7887 30.715 93.7887H28.0659C27.4788 93.7887 26.6626 94.4688 26.5624 94.6569C26.7486 95.0186 26.8917 95.3948 26.8917 95.5829V98.3754C26.8917 101.877 26.3476 107.983 26.3476 110.24C26.3476 116.534 26.1615 117.315 26.1615 117.923C26.1615 118.328 26.0755 122.842 27.7079 122.842C28.3953 122.842 28.4382 122.235 29.6554 122.235C29.8845 122.235 32.8056 122.51 32.9775 122.51C33.851 122.51 34.481 121.497 34.481 120.86ZM61.1436 120.773C61.1436 119.254 50.6332 105.407 50.6332 105.407C50.6332 104.771 57.3204 99.3014 58.3227 97.189C59.5542 96.5813 58.5089 96.8128 60.9575 94.5701C61.2296 93.919 60.3274 92.7325 59.6401 92.7325C59.053 92.7325 58.6807 92.6312 58.2798 92.9495C58.0507 92.8193 58.0077 92.6312 57.8215 92.6312C57.6354 92.6312 56.1319 92.8193 55.9171 92.8193C55.5448 92.8193 55.0436 92.6312 54.7715 92.6312C54.5854 92.6312 54.2274 92.8627 53.9983 92.9061C53.4112 93.0074 52.552 92.5878 51.7215 93.8756C51.1344 94.845 49.6309 96.1327 48.8147 96.6825C47.6262 98.3754 43.2158 102.557 43.2158 102.557C43.044 102.557 43.044 102.514 42.9867 102.427C42.8149 101.834 43.2158 97.8256 43.2158 97.3626C43.2158 97.1456 43.044 94.7003 42.9008 93.4126C42.9008 93.0508 42.2135 92.7325 41.9843 92.7325C41.8125 92.7325 38.5334 92.9061 36.901 93.2389C36.5716 93.2823 36.4428 93.7309 36.2136 93.9624V112.815L35.9416 119.891C35.9416 120.947 36.0704 122.379 37.4881 122.379C38.3472 122.379 40.8961 122.105 42.9008 121.772C43.717 120.079 43.316 119.428 43.5308 115.015C43.5881 114.508 43.674 114.696 43.6311 112.902C43.6311 112.729 44.3614 110.978 45.1776 110.978C46.0367 110.978 52.91 122.336 53.7262 122.336C53.9983 122.336 54.3133 122.235 54.4995 122.235C54.6856 122.235 55.5018 122.379 55.688 122.379C55.8598 122.379 58.738 122.047 60.2845 121.96C60.7284 121.916 61.1436 121.048 61.1436 120.773ZM85.0713 119.384C85.0713 119.066 84.9424 115.203 83.983 115.203C83.2957 115.203 81.291 115.854 78.8424 115.854C78.6562 115.825 78.5273 115.637 78.3412 115.637C78.1121 115.637 75.0191 115.912 74.79 115.912C74.6038 115.912 74.747 115.68 74.5179 115.68C74.3318 115.68 74.2888 115.912 74.1027 115.912C73.9738 115.912 73.7447 115.738 73.5585 115.738C72.4702 115.753 70.8378 115.666 70.2364 116.071C69.9214 115.941 69.6493 113.684 69.6493 113.004C69.6493 111.846 69.4202 110.385 70.7806 110.385L78.4701 110.153C79.4295 110.153 79.7015 110.283 80.3459 110.283C80.5177 110.283 81.4342 109.965 81.6203 109.965C81.8351 109.965 81.7062 110.153 81.9353 110.153C82.1215 110.153 81.9783 109.965 82.2074 109.965C82.3936 109.965 82.2933 110.153 82.4795 110.153C82.9806 110.153 83.3386 108.721 83.3386 108.533V104.626C83.1095 104.351 82.9377 104.033 82.7945 103.758C81.8351 103.989 80.7039 103.845 79.7445 103.903C77.4677 103.989 75.9785 104.264 75.4773 104.264C75.2912 104.264 73.8879 104.076 73.7017 104.076C73.4726 104.076 71.2388 104.264 71.0097 104.264C70.8808 104.264 69.6493 104.12 69.6493 103.44C69.6493 102.658 69.4632 102.239 69.4632 101.602C69.4632 101.414 69.5634 100.546 69.6923 100.17C70.2937 100.17 70.5085 100.039 70.7376 100.039C70.9238 100.039 71.0669 100.17 71.2388 100.17L78.8424 100.488C79.8447 100.488 80.89 100.358 82.2933 100.358C83.0666 100.358 84.341 99.8078 84.341 98.0571L84.2551 94.0202C83.7969 92.8627 82.5654 92.8627 81.9353 92.8627C78.8853 92.8627 78.0262 93.181 77.5679 93.181C76.1503 93.181 75.2052 93.2823 74.475 93.2823C74.2458 93.2823 72.012 93.0074 71.8402 93.0074C70.0646 93.0074 68.1028 93.181 67.5157 93.181C67.3296 93.181 64.2796 92.9061 64.0934 92.9061C63.9216 92.9061 62.461 93.6441 62.461 94.2373C62.461 94.7003 62.776 94.4254 62.776 96.2195V105.277C62.776 105.914 62.6472 106.333 62.6472 106.84V110.008C62.6472 113.727 62.5469 115.203 62.2319 121.41C62.1889 121.873 62.6042 122.423 62.819 122.741C63.9645 122.654 65.2819 122.423 65.4681 122.423C65.6399 122.423 65.554 122.698 65.7831 122.698C65.9693 122.698 70.2937 122.423 70.4655 122.423C71.339 122.423 80.3888 122.51 80.933 122.553C81.248 122.553 81.7062 122.842 81.8924 122.842C82.4365 122.842 82.9806 122.785 83.7109 122.785C85.0283 122.785 85.0713 120.354 85.0713 119.384ZM117.419 120.86C117.419 120.672 116.918 117.084 116.918 116.91V109.184C116.918 106.29 116.875 107.983 116.875 105.407C116.875 98.8384 117.046 103.208 116.774 97.9269C116.645 95.7999 117.419 93.6441 114.598 93.6441C114.369 93.6441 113.825 93.7887 113.638 93.7887H111.004C110.417 93.7887 109.586 94.4688 109.5 94.6569C109.686 95.0186 109.815 95.3948 109.815 95.5829V98.3754C109.815 101.877 109.271 107.983 109.271 110.24C109.271 116.534 109.085 117.315 109.085 117.923C109.085 118.328 108.999 122.842 110.631 122.842C111.319 122.842 111.362 122.235 112.593 122.235C112.822 122.235 115.729 122.51 115.915 122.51C116.774 122.51 117.419 121.497 117.419 120.86ZM142.578 98.6069C142.578 98.1439 142.392 93.0074 141.031 93.0074C140.845 93.0074 137.566 93.2823 137.394 93.2823H121.242C121.056 93.2823 120.741 93.456 120.512 93.5138C120.24 93.5138 119.781 93.4126 119.595 93.5572C119.323 93.7887 119.151 94.3386 118.879 94.4688C118.965 94.6135 118.693 94.6569 118.693 94.845C118.693 95.3948 119.151 95.7999 118.593 99.7644C119.094 100.039 119.28 100.444 119.781 100.444C120.24 100.444 120.741 100.358 121.414 100.358C121.643 100.358 121.514 100.17 121.743 100.17C121.915 100.17 122.058 100.444 122.244 100.444C122.745 100.444 123.791 100.271 124.235 100.271C124.421 100.271 125.566 100.546 125.695 100.546C125.924 100.546 126.827 100.358 127.328 100.401C127.156 106.478 127.471 103.165 127.471 107.158V109.271C127.471 110.703 127.829 111.803 127.829 112.034C127.829 112.584 127.471 118.01 127.471 119.109C127.471 120.122 127.428 122.929 129.103 122.929C129.289 122.973 129.834 122.741 130.02 122.741C130.249 122.741 130.249 122.842 130.421 122.842C130.65 122.842 130.879 122.741 131.022 122.553C131.065 122.654 131.108 122.842 131.337 122.842C131.523 122.842 132.297 122.553 132.468 122.553C132.697 122.553 132.654 122.741 132.841 122.741C133.07 122.741 132.927 122.51 133.156 122.51C133.299 122.51 133.385 122.553 133.528 122.553C133.743 122.553 134.344 122.379 134.659 122.336C134.616 122.148 134.616 121.96 134.702 122.047C134.788 122.047 135.246 121.584 135.246 121.352C135.246 120.802 134.745 119.196 134.745 118.878L134.516 111.325C134.516 110.211 134.888 108.88 134.43 107.91V102.658C134.43 101.139 134.244 99.9381 135.662 99.9381C135.891 99.9381 139.155 100.126 139.342 100.126C139.571 100.126 140.158 99.8513 140.344 99.8513C140.53 99.8513 140.702 99.9381 140.888 99.9381C141.389 99.9381 142.578 99.3448 142.578 98.6069ZM150.94 101.096L150.854 101.052L150.94 100.821L151.041 100.864L150.94 101.096ZM150.711 119.066C150.711 118.429 150.768 116.404 149.265 116.404C149.036 116.404 149.222 116.491 148.993 116.491C148.807 116.491 148.85 116.302 148.664 116.302C148.492 116.302 148.449 116.491 148.263 116.491C148.076 116.491 148.033 116.259 147.847 116.259C147.618 116.259 147.217 116.302 147.031 116.302C146.845 116.302 146.902 116.491 146.759 116.447C145.757 116.447 145.628 116.722 145.442 116.722C145.213 116.722 145.356 116.577 145.127 116.577C144.21 116.577 144.081 120.716 144.081 121.222C144.081 121.728 144.898 122.785 145.714 122.785C145.8 122.842 146.401 122.553 147.575 122.553C147.804 122.553 148.033 122.654 148.263 122.654C148.449 122.654 148.578 122.379 148.721 122.466C150.267 122.973 150.711 119.847 150.711 119.066ZM151.585 94.2952C151.441 92.8627 150.625 92.6746 150.038 92.6746C149.809 92.6746 148.535 93.0942 148.306 93.0942C148.119 93.0942 148.263 93.0074 148.033 93.0074C147.847 93.0074 147.489 93.2823 147.26 93.3257C146.716 93.4126 145.671 93.456 145.485 93.5572C142.306 95.1633 144.167 98.2452 143.437 101.37L145.069 113.872C146.215 114.422 147.675 114.885 147.804 114.885C147.991 114.885 148.449 114.696 148.621 114.696C149.995 114.696 150.439 110.052 150.439 109.777V107.708L151.313 99.6632L151.585 94.2952Z" fill="white"/>
<path fill-rule="evenodd" clip-rule="evenodd" d="M70.7314 52.8842C70.7458 54.8809 70.5596 54.6204 69.5429 55.6188C69.1706 55.9805 67.9105 57.3551 67.4953 57.5432C65.8629 56.2265 66.5645 56.0384 67.2805 52.9131C67.6241 51.4083 68.0537 49.0065 68.5549 47.5451C69.0847 47.5885 69.1133 47.7766 69.6145 47.849C70.173 47.9068 70.3734 47.7477 71.0751 47.849C71.6479 49.0354 71.6049 51.307 71.1897 51.8135C70.803 52.2909 70.7314 51.9871 70.7314 52.8842ZM76.1012 0C98.1244 0 115.966 18.0284 115.966 40.2672C115.966 42.7269 115.751 45.1433 115.322 47.4728C115.036 46.8651 114.692 46.3876 114.377 45.751L115.078 45.5918L114.248 44.0581C114.577 43.8555 113.833 44.2606 114.477 43.9568L114.649 43.8845L114.09 42.452C114.248 42.3218 114.463 42.2929 114.534 42.0469L112.916 39.1965C112.83 39.2399 112.802 39.2399 112.787 39.2833L111.957 40.6145C111.685 41.0919 111.441 41.5549 111.155 42.0469C111.27 42.3218 111.441 42.2784 111.542 42.5822L110.854 43.7832C111.083 43.9423 111.298 43.9423 111.37 44.1883L110.611 45.5194C110.668 45.5484 110.711 45.5339 110.725 45.5629C110.797 45.7654 110.654 45.5484 110.897 45.6497C111.198 45.7799 110.983 45.6207 111.255 45.7944C111.055 46.3152 110.754 46.9374 110.353 47.3136L109.823 46.4744C110.224 46.2429 110.224 46.4599 110.568 46.1995C110.167 45.3748 109.494 44.4632 109.193 43.6819L110.153 43.5951C110.052 43.0308 109.05 41.6852 108.792 40.9907L109.709 40.8604L108.663 38.8492L109.021 38.6611C109.165 38.6177 109.179 38.6611 109.379 38.5743C109.136 37.8075 108.592 37.3445 108.348 36.5776L109.021 36.3027C108.764 35.6661 107.16 32.8446 106.773 32.425C106.401 32.8301 104.769 35.7239 104.554 36.3027L105.198 36.5053L104.153 38.5599L104.912 38.8492L103.795 40.8315L104.754 40.9328L103.337 43.5806C103.58 43.624 104.01 43.5951 104.296 43.7976L104.053 44.3764C103.451 44.2317 103.05 43.7976 102.621 43.4504C101.504 42.4954 102.191 42.5099 102.406 42.0469L101.203 39.9344C100.917 39.428 101.117 39.7029 100.702 39.211L99.6279 40.9907C98.6112 40.6145 94.4443 37.0117 93.1126 35.9554C92.6257 35.5792 91.4945 34.5664 90.9074 34.3494C89.6616 35.2609 85.466 39.7463 84.1773 41.0051C83.2036 41.9456 77.7909 47.5017 77.5188 47.574C77.2181 45.6931 77.2611 39.5872 77.2038 37.2432C77.1751 36.0423 76.9031 32.888 77.2754 32.0199C77.5904 31.3109 77.9484 30.4428 77.5474 29.6759C77.5331 29.6614 77.5188 29.6325 77.5045 29.6036L77.4329 29.4878C77.2754 29.2274 77.5474 29.3286 77.1608 29.1116C76.8458 28.9235 76.8315 28.9959 76.4878 29.0103C76.0153 29.6036 75.6143 29.7048 75.3852 30.3704C75.0559 31.2964 75.3279 31.3688 74.7265 32.2369C74.3113 32.8157 72.6216 34.6098 72.1347 34.8847C71.3185 34.552 70.6312 33.8574 70.0584 33.3221L69.1563 32.3671C68.8413 32.0778 68.2828 31.9909 68.0394 31.6292L68.7697 31.3254C68.827 31.007 68.827 30.573 68.9129 30.3704C69.0131 30.11 69.2279 29.9942 69.4141 29.618C69.2136 28.9235 69.0274 29.1405 69.2422 28.446C69.7577 28.2579 70.0727 28.4026 70.5453 28.012C70.5453 26.9991 69.8007 27.2451 69.099 26.7821C68.9988 26.7098 68.0251 25.3352 67.9248 25.205C66.2352 25.1326 65.419 25.7693 64.4452 26.377C64.4596 27.8239 64.9035 28.446 64.2161 29.4878C63.4858 29.155 63.5431 28.692 62.2687 28.4894C61.4668 28.3737 61.653 28.6341 61.2091 28.5763C60.937 28.5329 60.6363 28.2579 60.221 28.1422C59.7055 28.5039 60.1065 28.6341 59.4191 28.7499C58.8464 28.8512 58.5743 28.7209 58.0874 29.0537C57.5433 29.4299 57.887 29.5457 56.9276 29.5023C54.5219 29.4155 55.3238 30.0087 54.8226 32.0488C54.6222 32.9025 54.3787 33.7417 54.1639 34.5809C53.7344 36.2304 53.2332 37.8509 52.8466 39.5293C52.3167 41.7864 54.751 41.4247 55.5816 42.7269C55.9968 43.3636 56.6698 43.5951 57.4717 43.8989C58.918 44.4487 59.1328 43.8121 60.1637 43.841C60.3213 45.013 60.7365 46.1271 60.8654 47.1544C61.0372 48.6882 60.5361 49.2959 61.0802 50.6704C60.3499 50.7428 59.9346 49.9325 59.4907 49.4839C58.9609 48.9775 58.5457 48.5579 58.0158 48.0226C57.0278 47.0387 56.1114 45.9101 55.0374 45.042C54.2069 45.3313 52.2738 46.7348 51.4003 47.2847C49.8681 48.2686 50.1116 48.7026 49.0519 50.9453C47.0902 55.1124 45.4005 59.2071 43.4387 63.3452C38.9138 56.8197 36.2504 48.8618 36.2504 40.2672C36.2504 18.0284 54.0923 0 76.1012 0ZM115.279 47.7187C115.222 48.0081 115.179 48.2975 115.107 48.5724C114.993 48.3698 114.849 48.1673 114.749 47.9358L115.279 47.7187ZM114.577 50.8006C114.434 51.3649 114.277 51.9147 114.105 52.4646L113.847 52.2475C113.947 51.8569 114.277 51.2926 114.577 50.8006ZM114.033 52.6961C108.85 68.8579 93.8285 80.5489 76.1012 80.5489C63.271 80.5489 51.8442 74.414 44.5557 64.879L49.3383 56.9789C50.0256 55.8069 52.5315 51.3939 53.2189 50.6415L50.5555 60.871C51.343 60.0753 52.9898 56.921 53.5912 55.8069C54.5219 54.114 55.4527 52.0594 56.5266 50.4823C57.0994 50.7428 62.5264 56.3857 63.4858 57.3261C64.5168 58.3245 64.2304 58.2232 63.8295 59.728C63.5718 60.654 63.3426 61.5222 63.0992 62.4771C62.7699 63.7214 61.7532 66.9336 61.6816 68.0911C62.956 67.2085 73.8817 57.3406 75.8434 55.6911C76.4305 55.1847 77.1895 54.4323 77.9197 53.9693L77.4042 63.1571C78.0343 62.8388 85.1224 54.8809 86.4541 53.3327C87.3562 52.262 87.8574 52.1462 88.3013 50.5257C89.2893 46.9519 90.3633 42.944 91.5661 39.5003L114.033 52.6961ZM66.1636 56.0384C65.7197 56.0095 64.7173 54.8664 64.5168 54.5626C64.1159 53.9693 64.8748 52.8263 65.1326 52.3633C65.6051 51.5241 65.2185 48.5869 66.3068 47.0387L68.0251 47.3859L66.5788 53.8102C66.3927 54.577 66.1922 55.1703 66.1636 56.0384ZM68.9558 40.0212C69.3711 39.2688 68.5119 39.4859 68.7124 36.7223C69.7577 36.1725 69.5572 36.3316 70.7314 36.7802C71.4617 37.0551 72.3209 37.3011 73.1944 37.2866C74.211 36.9683 75.2277 34.306 75.5714 33.6259C75.8721 33.0327 75.9437 32.6999 76.6453 32.5263C76.8028 33.2787 76.946 40.4987 76.989 41.9167C77.0319 43.5661 77.0749 45.2156 77.1322 46.8651C77.1608 48.1239 77.1035 48.0515 76.4449 48.6882C76.001 49.1222 75.643 49.5274 75.1991 49.9036C74.9413 44.9696 77.1035 44.8105 71.0178 43.1755C70.5596 43.0597 70.1443 42.9729 69.8293 42.6691C70.3019 42.1337 70.445 41.5549 70.2446 40.8894C69.815 39.3991 68.3974 40.8894 68.0251 41.2222L67.4093 41.0485C67.7387 40.8315 67.6814 40.6 67.6957 40.0502C67.7244 38.8637 67.5955 37.3879 68.2971 36.3461C68.8699 36.9683 68.1539 39.0373 68.5835 39.7608C68.741 40.0502 68.6122 39.9634 68.9558 40.0212Z" fill="white"/>
</svg>
