<svg width="24" height="24" viewBox="0 0 24 24" fill="none" xmlns="http://www.w3.org/2000/svg">
<defs>
<linearGradient id="paint0_linear_312_1270" x1="12.0213" y1="17.5532" x2="7.97259" y2="12.7937" gradientUnits="userSpaceOnUse">
<stop offset="0.210486" stop-color="#8D5096"/>
<stop offset="1" stop-color="#CF6A9B"/>
</linearGradient>
<linearGradient id="paint1_linear_312_1270" x1="9.70926" y1="10.685" x2="7.53023" y2="8.1218" gradientUnits="userSpaceOnUse">
<stop offset="0.210486" stop-color="#8D5096"/>
<stop offset="1" stop-color="#CF6A9B"/>
</linearGradient>
</defs>
<path d="M7.21433 13.1328L14.0624 8.91355C14.2158 8.81954 14.4122 8.82854 14.5558 8.93955C15.1403 9.38964 15.6688 9.84538 16.0513 10.243C16.1354 10.3303 16.2181 10.4186 16.3003 10.5076C16.4105 10.627 16.5669 10.8036 16.6542 10.9346C16.8877 11.2307 17 11.6177 17 11.9937C17 12.4157 16.8769 12.8147 16.6317 13.1338C16.576 13.1908 16.364 13.4418 16.1638 13.6468C14.9954 14.9228 11.9455 17.031 10.3414 17.67C10.1079 17.773 9.48466 17.988 9.16131 18C8.84967 18 8.54879 17.932 8.25962 17.783C7.90403 17.578 7.62561 17.26 7.46931 16.8829C7.44976 16.832 7.42814 16.7613 7.406 16.6803C7.24999 16.1093 7.15417 15.5195 7.09464 14.9305C7.05303 14.5189 7.0209 14.051 7.00039 13.5428C6.99355 13.3778 7.07659 13.2178 7.21433 13.1328" fill="url(#paint0_linear_312_1270)"/>
<path opacity="0.4" d="M7.67234 10.8603C7.37047 11.0473 6.99046 10.8083 7.00511 10.4493C7.01665 10.1805 7.03087 9.92187 7.04737 9.67639C7.10705 8.78858 7.10296 7.77401 7.5258 6.99108V6.99108C7.83743 6.37605 8.44898 6.00003 9.10644 6.00003H9.16114V6.00003C10.0057 6.02195 10.9962 6.62299 11.7292 7.0433C11.8734 7.12604 12.0215 7.21326 12.172 7.3041C12.4592 7.47811 12.466 7.90513 12.1788 8.08214L7.67234 10.8603Z" fill="url(#paint1_linear_312_1270)"/>
</svg>
