<svg width="24" height="24" viewBox="0 0 24 24" fill="none" xmlns="http://www.w3.org/2000/svg">
<defs>
<linearGradient id="paint0_linear_312_1245" x1="2.68359" y1="12.0427" x2="11.5008" y2="6.30511" gradientUnits="userSpaceOnUse">
<stop offset="0.210486" stop-color="#8D5096"/>
<stop offset="1" stop-color="#CF6A9B"/>
</linearGradient>
<linearGradient id="paint1_linear_312_1245" x1="9.44313" y1="12.0156" x2="12.5724" y2="6.79619" gradientUnits="userSpaceOnUse">
<stop offset="0.210486" stop-color="#8D5096"/>
<stop offset="1" stop-color="#CF6A9B"/>
</linearGradient>
</defs>
<path opacity="0.4" d="M2 6.447C2 3.996 4.03024 2 6.52453 2H11.4856C13.9748 2 16 3.99 16 6.437V17.553C16 20.005 13.9698 22 11.4744 22H6.51537C4.02515 22 2 20.01 2 17.563V16.623V6.447Z" fill="url(#paint0_linear_312_1245)"/>
<path d="M21.7789 11.4548L18.9331 8.5458C18.639 8.2458 18.1657 8.2458 17.8725 8.5478C17.5803 8.8498 17.5813 9.3368 17.8745 9.6368L18.388 10.1614C18.7775 10.5594 18.4956 11.2298 17.9387 11.2298H9.54844C9.13452 11.2298 8.79852 11.5748 8.79852 11.9998C8.79852 12.4258 9.13452 12.7698 9.54844 12.7698H17.2046C18.0349 12.7698 18.4552 13.7695 17.8745 14.3628C17.5813 14.6628 17.5803 15.1498 17.8725 15.4518C18.0196 15.6028 18.2114 15.6788 18.4043 15.6788C18.5952 15.6788 18.787 15.6028 18.9331 15.4538L21.7789 12.5458C21.9201 12.4008 22 12.2048 22 11.9998C22 11.7958 21.9201 11.5998 21.7789 11.4548Z" fill="url(#paint1_linear_312_1245)"/>
</svg>
