<svg width="24" height="24" viewBox="0 0 24 24" fill="none" xmlns="http://www.w3.org/2000/svg">
<defs>
<linearGradient id="paint0_linear_28_481" x1="4.78071" y1="18.6017" x2="7.27618" y2="13.1654" gradientUnits="userSpaceOnUse">
<stop offset="0.210486" stop-color="#8D5096"/>
<stop offset="1" stop-color="#CF6A9B"/>
</linearGradient>
<linearGradient id="paint1_linear_28_481" x1="7.22151" y1="7.31434" x2="12.3114" y2="2.58276" gradientUnits="userSpaceOnUse">
<stop offset="0.210486" stop-color="#8D5096"/>
<stop offset="1" stop-color="#CF6A9B"/>
</linearGradient>
</defs>
<g id="Iconly/Bulk/Profile">
<g id="Profile">
<path id="Fill 1" d="M11.9968 15.1747C7.68376 15.1747 3.99976 15.8547 3.99976 18.5747C3.99976 21.2957 7.66076 21.9997 11.9968 21.9997C16.3098 21.9997 19.9938 21.3207 19.9938 18.5997C19.9938 15.8787 16.3338 15.1747 11.9968 15.1747Z" fill="url(#paint0_linear_28_481)"/>
<path id="Fill 4" opacity="0.4" d="M11.9967 12.5838C14.9347 12.5838 17.2887 10.2288 17.2887 7.29176C17.2887 4.35476 14.9347 1.99976 11.9967 1.99976C9.05971 1.99976 6.70471 4.35476 6.70471 7.29176C6.70471 10.2288 9.05971 12.5838 11.9967 12.5838Z" fill="url(#paint1_linear_28_481)"/>
</g>
</g>
</svg>
