<svg width="24" height="25" viewBox="0 0 24 25" fill="none" xmlns="http://www.w3.org/2000/svg">
<defs>
<linearGradient id="paint0_linear_312_1253" x1="9.39156" y1="12.5993" x2="12.1123" y2="10.0145" gradientUnits="userSpaceOnUse">
<stop offset="0.210486" stop-color="#8D5096"/>
<stop offset="1" stop-color="#CF6A9B"/>
</linearGradient>
<linearGradient id="paint1_linear_312_1253" x1="3.42764" y1="12.6248" x2="12.9973" y2="4.17359" gradientUnits="userSpaceOnUse">
<stop offset="0.210486" stop-color="#8D5096"/>
<stop offset="1" stop-color="#CF6A9B"/>
</linearGradient>
</defs>
<path d="M12.012 15.4122C10.4075 15.4122 9.10962 14.1622 9.10962 12.5922C9.10962 11.0222 10.4075 9.76221 12.012 9.76221C13.6165 9.76221 14.8837 11.0222 14.8837 12.5922C14.8837 14.1622 13.6165 15.4122 12.012 15.4122Z" fill="url(#paint0_linear_312_1253)"/>
<path opacity="0.4" d="M21.23 14.9522C21.0359 14.6522 20.7599 14.3522 20.4023 14.1622C20.1161 14.0222 19.9322 13.7922 19.7686 13.5222C19.2474 12.6622 19.554 11.5322 20.4227 11.0222C21.4447 10.4522 21.7717 9.18215 21.1789 8.19215L20.4942 7.01215C19.9117 6.02215 18.6343 5.67215 17.6225 6.25215C16.7232 6.73215 15.5684 6.41215 15.0472 5.56215C14.8837 5.28215 14.7917 4.98215 14.8121 4.68215C14.8428 4.29215 14.7202 3.92215 14.5362 3.62215C14.1581 3.00215 13.4734 2.58215 12.7171 2.58215H11.2762C10.5301 2.60215 9.84543 3.00215 9.46731 3.62215C9.27314 3.92215 9.16072 4.29215 9.18116 4.68215C9.2016 4.98215 9.10962 5.28215 8.94611 5.56215C8.42491 6.41215 7.2701 6.73215 6.381 6.25215C5.35904 5.67215 4.09181 6.02215 3.49908 7.01215L2.81437 8.19215C2.23185 9.18215 2.55888 10.4522 3.57062 11.0222C4.43928 11.5322 4.74587 12.6622 4.23489 13.5222C4.06116 13.7922 3.8772 14.0222 3.59106 14.1622C3.24359 14.3522 2.937 14.6522 2.77349 14.9522C2.39536 15.5722 2.4158 16.3522 2.79393 17.0022L3.49908 18.2022C3.8772 18.8422 4.58235 19.2422 5.31816 19.2422C5.66563 19.2422 6.07441 19.1422 6.40144 18.9422C6.65693 18.7722 6.96351 18.7122 7.30076 18.7122C8.3125 18.7122 9.16072 19.5422 9.18116 20.5322C9.18116 21.6822 10.1214 22.5822 11.3068 22.5822H12.6967C13.8719 22.5822 14.8121 21.6822 14.8121 20.5322C14.8428 19.5422 15.691 18.7122 16.7028 18.7122C17.0298 18.7122 17.3364 18.7722 17.6021 18.9422C17.9291 19.1422 18.3277 19.2422 18.6854 19.2422C19.411 19.2422 20.1161 18.8422 20.4942 18.2022L21.2096 17.0022C21.5775 16.3322 21.6082 15.5722 21.23 14.9522Z" fill="url(#paint1_linear_312_1253)"/>
</svg>
