<svg width="24" height="24" viewBox="0 0 24 24" fill="none" xmlns="http://www.w3.org/2000/svg">
<defs>
<linearGradient id="paint0_linear_28_482" x1="3.87891" y1="12.0427" x2="13.3712" y2="4.10097" gradientUnits="userSpaceOnUse">
<stop offset="0.210486" stop-color="#8D5096"/>
<stop offset="1" stop-color="#CF6A9B"/>
</linearGradient>
<linearGradient id="paint1_linear_28_482" x1="7.6734" y1="12.006" x2="12.7253" y2="7.82771" gradientUnits="userSpaceOnUse">
<stop offset="0.210486" stop-color="#8D5096"/>
<stop offset="1" stop-color="#CF6A9B"/>
</linearGradient>
</defs>
<g id="Iconly/Bulk/Document">
<g id="Document">
<path id="Path" opacity="0.4" d="M16.191 2H7.81C4.77 2 3 3.78 3 6.83V17.16C3 20.26 4.77 22 7.81 22H16.191C19.28 22 21 20.26 21 17.16V6.83C21 3.78 19.28 2 16.191 2Z" fill="url(#paint0_linear_28_482)"/>
<path id="Combined Shape" fill-rule="evenodd" clip-rule="evenodd" d="M8.08502 6.65002C8.08226 6.65002 8.08002 6.65226 8.08002 6.65502C8.08002 6.65779 8.07776 6.66002 8.075 6.66004C7.64631 6.66275 7.30002 7.0117 7.30002 7.44002C7.30002 7.87002 7.64902 8.22002 8.08002 8.22002H11.069C11.5 8.22002 11.85 7.87002 11.85 7.42902C11.85 7.00002 11.5 6.65002 11.069 6.65002H8.08502ZM15.92 12.74H8.08002C7.64902 12.74 7.30002 12.39 7.30002 11.96C7.30002 11.53 7.64902 11.179 8.08002 11.179H15.92C16.35 11.179 16.7 11.53 16.7 11.96C16.7 12.39 16.35 12.74 15.92 12.74ZM15.92 17.31H8.08002C7.78002 17.35 7.49002 17.2 7.33002 16.95C7.17002 16.69 7.17002 16.36 7.33002 16.11C7.49002 15.85 7.78002 15.71 8.08002 15.74H15.92C16.319 15.78 16.62 16.12 16.62 16.53C16.62 16.929 16.319 17.27 15.92 17.31Z" fill="url(#paint1_linear_28_482)"/>
</g>
</g>
</svg>
