<svg width="15" height="15" viewBox="0 0 15 15" fill="none" xmlns="http://www.w3.org/2000/svg">
<defs>
<linearGradient id="paint0_linear_24_292" x1="3.6662" y1="6.8555" x2="8.19852" y2="3.38125" gradientUnits="userSpaceOnUse">
<stop offset="0.210486" stop-color="#8D5096"/>
<stop offset="1" stop-color="#CF6A9B"/>
</linearGradient>
<linearGradient id="paint1_linear_24_292" x1="4.70084" y1="12.8633" x2="4.92821" y2="11.8064" gradientUnits="userSpaceOnUse">
<stop offset="0.210486" stop-color="#8D5096"/>
<stop offset="1" stop-color="#CF6A9B"/>
</linearGradient>
</defs>
<path fill-rule="evenodd" clip-rule="evenodd" d="M5.29902 2.50496C6.55163 1.77714 8.09129 1.78986 9.33215 2.53828C10.5608 3.30195 11.3076 4.66487 11.3006 6.13099C11.272 7.58749 10.4713 8.9566 9.47037 10.015C8.89268 10.6286 8.24643 11.1712 7.54482 11.6317C7.5412 11.6338 7.53756 11.6359 7.53391 11.6379C7.39627 11.7141 7.22178 11.7279 7.08726 11.6463V11.6463C6.01613 10.9543 5.07641 10.0711 4.31333 9.03913C3.6748 8.17767 3.31204 7.1369 3.27429 6.05816C3.27346 4.58923 4.04641 3.23278 5.29902 2.50496ZM6.02285 6.66608C6.23356 7.18553 6.73091 7.52437 7.28268 7.52437C7.64415 7.52697 7.99163 7.38218 8.24769 7.12226C8.50374 6.86235 8.6471 6.50891 8.64582 6.1407C8.64775 5.57865 8.31685 5.07085 7.80764 4.8544C7.29843 4.63795 6.71134 4.75555 6.32049 5.15228C5.92965 5.54901 5.81215 6.14663 6.02285 6.66608Z" fill="url(#paint0_linear_24_292)"/>
<ellipse opacity="0.4" cx="7.28747" cy="12.8609" rx="2.86657" ry="0.573315" fill="url(#paint1_linear_24_292)"/>
</svg>
