<svg width="6" height="7" viewBox="0 0 6 7" fill="none" xmlns="http://www.w3.org/2000/svg">
<path d="M5.49034 3.85144H3.56214V5.76292C3.56214 6.07069 3.31046 6.32019 3 6.32019C2.68954 6.32019 2.43786 6.07069 2.43786 5.76292V3.85144H0.509659C0.220067 3.82171 0 3.5798 0 3.29118C0 3.00257 0.220067 2.76065 0.509659 2.73092H2.43182V0.82543C2.4618 0.538349 2.70584 0.32019 2.99698 0.32019C3.28812 0.32019 3.53215 0.538349 3.56214 0.82543V2.73092H5.49034C5.77993 2.76065 6 3.00257 6 3.29118C6 3.5798 5.77993 3.82171 5.49034 3.85144Z" fill="#D9AF3A"/>
</svg>
