<svg width="43" height="43" viewBox="0 0 43 43" fill="none" xmlns="http://www.w3.org/2000/svg">
<rect width="43" height="43" rx="10" fill="#B7E5DD"/>
<path opacity="0.4" d="M32 24.9402C32 27.7302 29.76 29.9902 26.97 30.0002H26.96H17.05C14.27 30.0002 12 27.7502 12 24.9602V24.9502C12 24.9502 12.006 20.5242 12.014 18.2982C12.015 17.8802 12.495 17.6462 12.822 17.9062C15.198 19.7912 19.447 23.2282 19.5 23.2732C20.21 23.8422 21.11 24.1632 22.03 24.1632C22.95 24.1632 23.85 23.8422 24.56 23.2622C24.613 23.2272 28.767 19.8932 31.179 17.9772C31.507 17.7162 31.989 17.9502 31.99 18.3672C32 20.5762 32 24.9402 32 24.9402" fill="#07715E"/>
<path d="M31.4761 14.6736C30.6101 13.0416 28.9061 11.9996 27.0301 11.9996H17.0501C15.1741 11.9996 13.4701 13.0416 12.6041 14.6736C12.4101 15.0386 12.5021 15.4936 12.8251 15.7516L20.2501 21.6906C20.7701 22.1106 21.4001 22.3196 22.0301 22.3196C22.0341 22.3196 22.0371 22.3196 22.0401 22.3196C22.0431 22.3196 22.0471 22.3196 22.0501 22.3196C22.6801 22.3196 23.3101 22.1106 23.8301 21.6906L31.2551 15.7516C31.5781 15.4936 31.6701 15.0386 31.4761 14.6736" fill="#07715E"/>
</svg>
