<svg width="24" height="24" viewBox="0 0 24 24" fill="none" xmlns="http://www.w3.org/2000/svg">
<defs>
<linearGradient id="paint0_linear_333_623" x1="5.68359" y1="10.5252" x2="13.589" y2="4.46524" gradientUnits="userSpaceOnUse">
<stop offset="0.210486" stop-color="#8D5096"/>
<stop offset="1" stop-color="#CF6A9B"/>
</linearGradient>
<linearGradient id="paint1_linear_333_623" x1="7.48828" y1="21.0043" x2="7.88488" y2="19.1609" gradientUnits="userSpaceOnUse">
<stop offset="0.210486" stop-color="#8D5096"/>
<stop offset="1" stop-color="#CF6A9B"/>
</linearGradient>
</defs>
<g id="Iconly/Bulk/Location">
<g id="Location">
<path id="Path_34175" fill-rule="evenodd" clip-rule="evenodd" d="M8.53162 2.93677C10.7165 1.66727 13.402 1.68946 15.5664 2.99489C17.7095 4.32691 19.012 6.70418 18.9998 9.26144C18.95 11.8019 17.5533 14.19 15.8075 16.0361C14.7998 17.1064 13.6726 18.0528 12.4488 18.856C12.4425 18.8597 12.4362 18.8633 12.4298 18.8668C12.1897 18.9998 11.8854 19.0238 11.6508 18.8814V18.8814C9.78243 17.6746 8.14334 16.134 6.81233 14.334C5.69859 12.8314 5.06584 11.016 5 9.13442C4.99856 6.57225 6.34677 4.20627 8.53162 2.93677ZM9.79416 10.1948C10.1617 11.1008 11.0292 11.6918 11.9916 11.6918C12.6221 11.6964 13.2282 11.4438 13.6748 10.9905C14.1214 10.5371 14.3715 9.92064 14.3692 9.27838C14.3726 8.29804 13.7955 7.41231 12.9073 7.03477C12.0191 6.65723 10.995 6.86235 10.3133 7.55435C9.63159 8.24635 9.42664 9.28872 9.79416 10.1948Z" fill="url(#paint0_linear_333_623)"/>
<ellipse id="Ellipse_743" opacity="0.4" cx="12" cy="21" rx="5" ry="1" fill="url(#paint1_linear_333_623)"/>
</g>
</g>
</svg>
