<svg width="92" height="16" viewBox="0 0 92 16" fill="none" xmlns="http://www.w3.org/2000/svg">
<defs>
<linearGradient id="paint0_linear_333_605" x1="1.98442" y1="8.02704" x2="8.09066" y2="2.05188" gradientUnits="userSpaceOnUse">
<stop offset="0.210486" stop-color="#8D5096"/>
<stop offset="1" stop-color="#CF6A9B"/>
</linearGradient>
<linearGradient id="paint1_linear_333_605" x1="1.6589" y1="8.02704" x2="6.48111" y2="5.66769" gradientUnits="userSpaceOnUse">
<stop offset="0.210486" stop-color="#8D5096"/>
<stop offset="1" stop-color="#CF6A9B"/>
</linearGradient>
<linearGradient id="paint2_linear_333_605" x1="20.9844" y1="8.02704" x2="27.0907" y2="2.05188" gradientUnits="userSpaceOnUse">
<stop offset="0.210486" stop-color="#8D5096"/>
<stop offset="1" stop-color="#CF6A9B"/>
</linearGradient>
<linearGradient id="paint3_linear_333_605" x1="20.6589" y1="8.02704" x2="25.4811" y2="5.66769" gradientUnits="userSpaceOnUse">
<stop offset="0.210486" stop-color="#8D5096"/>
<stop offset="1" stop-color="#CF6A9B"/>
</linearGradient>
<linearGradient id="paint4_linear_333_605" x1="39.9843" y1="8.02704" x2="46.0905" y2="2.05188" gradientUnits="userSpaceOnUse">
<stop offset="0.210486" stop-color="#8D5096"/>
<stop offset="1" stop-color="#CF6A9B"/>
</linearGradient>
<linearGradient id="paint5_linear_333_605" x1="39.6588" y1="8.02704" x2="44.481" y2="5.66769" gradientUnits="userSpaceOnUse">
<stop offset="0.210486" stop-color="#8D5096"/>
<stop offset="1" stop-color="#CF6A9B"/>
</linearGradient>
<linearGradient id="paint6_linear_333_605" x1="58.9843" y1="8.02704" x2="65.0905" y2="2.05188" gradientUnits="userSpaceOnUse">
<stop offset="0.210486" stop-color="#8D5096"/>
<stop offset="1" stop-color="#CF6A9B"/>
</linearGradient>
<linearGradient id="paint7_linear_333_605" x1="58.6588" y1="8.02704" x2="63.481" y2="5.66769" gradientUnits="userSpaceOnUse">
<stop offset="0.210486" stop-color="#8D5096"/>
<stop offset="1" stop-color="#CF6A9B"/>
</linearGradient>
<linearGradient id="paint8_linear_333_605" x1="77.9843" y1="8.02704" x2="84.0905" y2="2.05188" gradientUnits="userSpaceOnUse">
<stop offset="0.210486" stop-color="#8D5096"/>
<stop offset="1" stop-color="#CF6A9B"/>
</linearGradient>
<linearGradient id="paint9_linear_333_605" x1="77.6588" y1="8.02704" x2="82.481" y2="5.66769" gradientUnits="userSpaceOnUse">
<stop offset="0.210486" stop-color="#8D5096"/>
<stop offset="1" stop-color="#CF6A9B"/>
</linearGradient>
</defs>
<path opacity="0.4" d="M8.65091 2.07575L10.1352 5.0586C10.2446 5.27471 10.4533 5.42478 10.694 5.45813L14.0281 5.94371C14.2228 5.97106 14.3995 6.07378 14.5188 6.23053C14.6369 6.38527 14.6875 6.58137 14.6589 6.77414C14.6355 6.93422 14.5602 7.08229 14.4448 7.19568L12.029 9.53754C11.8523 9.70096 11.7722 9.94308 11.8149 10.1799L12.4097 13.4722C12.4731 13.8697 12.2097 14.2446 11.8149 14.32C11.6522 14.346 11.4855 14.3186 11.3388 14.2439L8.36485 12.6945C8.14413 12.5831 7.88341 12.5831 7.6627 12.6945L4.68872 14.2439C4.32331 14.438 3.87055 14.306 3.66717 13.9458C3.59182 13.8024 3.56515 13.639 3.58982 13.4795L4.18462 10.1865C4.22729 9.95042 4.14661 9.70696 3.97057 9.54354L1.55472 7.20302C1.26732 6.92555 1.25865 6.46865 1.53538 6.18117C1.54138 6.17517 1.54805 6.1685 1.55472 6.16183C1.66941 6.0451 1.82011 5.97106 1.98281 5.95172L5.31686 5.46547C5.55691 5.43145 5.76562 5.28271 5.87565 5.06527L7.30662 2.07575C7.43398 1.81962 7.69804 1.6602 7.98477 1.66687H8.07412C8.32284 1.69689 8.53955 1.85097 8.65091 2.07575" fill="url(#paint0_linear_333_605)"/>
<path d="M7.99471 12.6114C7.86558 12.6154 7.73978 12.6501 7.62662 12.7122L4.66719 14.2581C4.30508 14.4309 3.87175 14.2968 3.66873 13.9505C3.59351 13.8091 3.56622 13.6469 3.59152 13.4881L4.1826 10.2021C4.22254 9.96324 4.14266 9.72038 3.96893 9.55224L1.552 7.21232C1.26511 6.93143 1.25978 6.47038 1.54068 6.18281C1.54468 6.17881 1.54801 6.17547 1.552 6.17214C1.66649 6.05871 1.81426 5.98398 1.97335 5.96063L5.31019 5.46956C5.55182 5.43887 5.7615 5.28808 5.868 5.06923L7.31843 2.04208V2.04208C7.54253 1.6449 7.99843 2.02833 7.99786 2.48437C7.99472 5.00777 7.99471 12.4983 7.99471 12.6114" fill="url(#paint1_linear_333_605)"/>
<path opacity="0.4" d="M27.6509 2.07575L29.1352 5.0586C29.2446 5.27471 29.4533 5.42478 29.694 5.45813L33.0281 5.94371C33.2228 5.97106 33.3995 6.07378 33.5188 6.23053C33.6369 6.38527 33.6875 6.58137 33.6589 6.77414C33.6355 6.93422 33.5602 7.08229 33.4448 7.19568L31.029 9.53754C30.8523 9.70096 30.7722 9.94308 30.8149 10.1799L31.4097 13.4722C31.4731 13.8697 31.2097 14.2446 30.8149 14.32C30.6522 14.346 30.4855 14.3186 30.3388 14.2439L27.3648 12.6945C27.1441 12.5831 26.8834 12.5831 26.6627 12.6945L23.6887 14.2439C23.3233 14.438 22.8705 14.306 22.6672 13.9458C22.5918 13.8024 22.5652 13.639 22.5898 13.4795L23.1846 10.1865C23.2273 9.95042 23.1466 9.70696 22.9706 9.54354L20.5547 7.20302C20.2673 6.92555 20.2587 6.46865 20.5354 6.18117C20.5414 6.17517 20.5481 6.1685 20.5547 6.16183C20.6694 6.0451 20.8201 5.97106 20.9828 5.95172L24.3169 5.46547C24.5569 5.43145 24.7656 5.28271 24.8756 5.06527L26.3066 2.07575C26.434 1.81962 26.698 1.6602 26.9848 1.66687H27.0741C27.3228 1.69689 27.5396 1.85097 27.6509 2.07575" fill="url(#paint2_linear_333_605)"/>
<path d="M26.9947 12.6114C26.8656 12.6154 26.7398 12.6501 26.6266 12.7122L23.6672 14.2581C23.3051 14.4309 22.8717 14.2968 22.6687 13.9505C22.5935 13.8091 22.5662 13.6469 22.5915 13.4881L23.1826 10.2021C23.2225 9.96324 23.1427 9.72038 22.9689 9.55224L20.552 7.21232C20.2651 6.93143 20.2598 6.47038 20.5407 6.18281C20.5447 6.17881 20.548 6.17547 20.552 6.17214C20.6665 6.05871 20.8143 5.98398 20.9733 5.96063L24.3102 5.46956C24.5518 5.43887 24.7615 5.28808 24.868 5.06923L26.3184 2.04208V2.04208C26.5425 1.6449 26.9984 2.02833 26.9979 2.48437C26.9947 5.00777 26.9947 12.4983 26.9947 12.6114" fill="url(#paint3_linear_333_605)"/>
<path opacity="0.4" d="M46.6508 2.07575L48.1351 5.0586C48.2445 5.27471 48.4532 5.42478 48.6939 5.45813L52.0279 5.94371C52.2226 5.97106 52.3994 6.07378 52.5187 6.23053C52.6367 6.38527 52.6874 6.58137 52.6587 6.77414C52.6354 6.93422 52.5601 7.08229 52.4447 7.19568L50.0288 9.53754C49.8521 9.70096 49.7721 9.94308 49.8148 10.1799L50.4096 13.4722C50.4729 13.8697 50.2096 14.2446 49.8148 14.32C49.6521 14.346 49.4854 14.3186 49.3387 14.2439L46.3647 12.6945C46.144 12.5831 45.8833 12.5831 45.6626 12.6945L42.6886 14.2439C42.3232 14.438 41.8704 14.306 41.667 13.9458C41.5917 13.8024 41.565 13.639 41.5897 13.4795L42.1845 10.1865C42.2272 9.95042 42.1465 9.70696 41.9704 9.54354L39.5546 7.20302C39.2672 6.92555 39.2585 6.46865 39.5353 6.18117C39.5413 6.17517 39.5479 6.1685 39.5546 6.16183C39.6693 6.0451 39.82 5.97106 39.9827 5.95172L43.3167 5.46547C43.5568 5.43145 43.7655 5.28271 43.8755 5.06527L45.3065 2.07575C45.4339 1.81962 45.6979 1.6602 45.9846 1.66687H46.074C46.3227 1.69689 46.5394 1.85097 46.6508 2.07575" fill="url(#paint4_linear_333_605)"/>
<path d="M45.9946 12.6114C45.8655 12.6154 45.7397 12.6501 45.6265 12.7122L42.6671 14.2581C42.305 14.4309 41.8716 14.2968 41.6686 13.9505C41.5934 13.8091 41.5661 13.6469 41.5914 13.4881L42.1825 10.2021C42.2224 9.96324 42.1425 9.72038 41.9688 9.55224L39.5519 7.21232C39.265 6.93143 39.2597 6.47038 39.5406 6.18281C39.5446 6.17881 39.5479 6.17547 39.5519 6.17214C39.6664 6.05871 39.8141 5.98398 39.9732 5.96063L43.3101 5.46956C43.5517 5.43887 43.7614 5.28808 43.8679 5.06923L45.3183 2.04208V2.04208C45.5424 1.6449 45.9983 2.02833 45.9977 2.48437C45.9946 5.00777 45.9946 12.4983 45.9946 12.6114" fill="url(#paint5_linear_333_605)"/>
<path opacity="0.4" d="M65.6508 2.07575L67.1351 5.0586C67.2445 5.27471 67.4532 5.42478 67.6939 5.45813L71.0279 5.94371C71.2226 5.97106 71.3994 6.07378 71.5187 6.23053C71.6367 6.38527 71.6874 6.58137 71.6587 6.77414C71.6354 6.93422 71.5601 7.08229 71.4447 7.19568L69.0288 9.53754C68.8521 9.70096 68.7721 9.94308 68.8148 10.1799L69.4096 13.4722C69.4729 13.8697 69.2096 14.2446 68.8148 14.32C68.6521 14.346 68.4854 14.3186 68.3387 14.2439L65.3647 12.6945C65.144 12.5831 64.8833 12.5831 64.6626 12.6945L61.6886 14.2439C61.3232 14.438 60.8704 14.306 60.667 13.9458C60.5917 13.8024 60.565 13.639 60.5897 13.4795L61.1845 10.1865C61.2272 9.95042 61.1465 9.70696 60.9704 9.54354L58.5546 7.20302C58.2672 6.92555 58.2585 6.46865 58.5353 6.18117C58.5413 6.17517 58.5479 6.1685 58.5546 6.16183C58.6693 6.0451 58.82 5.97106 58.9827 5.95172L62.3167 5.46547C62.5568 5.43145 62.7655 5.28271 62.8755 5.06527L64.3065 2.07575C64.4339 1.81962 64.6979 1.6602 64.9846 1.66687H65.074C65.3227 1.69689 65.5394 1.85097 65.6508 2.07575" fill="url(#paint6_linear_333_605)"/>
<path d="M64.9946 12.6114C64.8655 12.6154 64.7397 12.6501 64.6265 12.7122L61.6671 14.2581C61.305 14.4309 60.8716 14.2968 60.6686 13.9505C60.5934 13.8091 60.5661 13.6469 60.5914 13.4881L61.1825 10.2021C61.2224 9.96324 61.1425 9.72038 60.9688 9.55224L58.5519 7.21232C58.265 6.93143 58.2597 6.47038 58.5406 6.18281C58.5446 6.17881 58.5479 6.17547 58.5519 6.17214C58.6664 6.05871 58.8141 5.98398 58.9732 5.96063L62.3101 5.46956C62.5517 5.43887 62.7614 5.28808 62.8679 5.06923L64.3183 2.04208V2.04208C64.5424 1.6449 64.9983 2.02833 64.9977 2.48437C64.9946 5.00777 64.9946 12.4983 64.9946 12.6114" fill="url(#paint7_linear_333_605)"/>
<path opacity="0.4" d="M84.6508 2.07575L86.1351 5.0586C86.2445 5.27471 86.4532 5.42478 86.6939 5.45813L90.0279 5.94371C90.2226 5.97106 90.3994 6.07378 90.5187 6.23053C90.6367 6.38527 90.6874 6.58137 90.6587 6.77414C90.6354 6.93422 90.5601 7.08229 90.4447 7.19568L88.0288 9.53754C87.8521 9.70096 87.7721 9.94308 87.8148 10.1799L88.4096 13.4722C88.4729 13.8697 88.2096 14.2446 87.8148 14.32C87.6521 14.346 87.4854 14.3186 87.3387 14.2439L84.3647 12.6945C84.144 12.5831 83.8833 12.5831 83.6626 12.6945L80.6886 14.2439C80.3232 14.438 79.8704 14.306 79.667 13.9458C79.5917 13.8024 79.565 13.639 79.5897 13.4795L80.1845 10.1865C80.2272 9.95042 80.1465 9.70696 79.9704 9.54354L77.5546 7.20302C77.2672 6.92555 77.2585 6.46865 77.5353 6.18117C77.5413 6.17517 77.5479 6.1685 77.5546 6.16183C77.6693 6.0451 77.82 5.97106 77.9827 5.95172L81.3167 5.46547C81.5568 5.43145 81.7655 5.28271 81.8755 5.06527L83.3065 2.07575C83.4339 1.81962 83.6979 1.6602 83.9846 1.66687H84.074C84.3227 1.69689 84.5394 1.85097 84.6508 2.07575" fill="url(#paint8_linear_333_605)"/>
<path d="M83.9946 12.6114C83.8655 12.6154 83.7397 12.6501 83.6265 12.7122L80.6671 14.2581C80.305 14.4309 79.8716 14.2968 79.6686 13.9505C79.5934 13.8091 79.5661 13.6469 79.5914 13.4881L80.1825 10.2021C80.2224 9.96324 80.1425 9.72038 79.9688 9.55224L77.5519 7.21232C77.265 6.93143 77.2597 6.47038 77.5406 6.18281C77.5446 6.17881 77.5479 6.17547 77.5519 6.17214C77.6664 6.05871 77.8141 5.98398 77.9732 5.96063L81.3101 5.46956C81.5517 5.43887 81.7614 5.28808 81.8679 5.06923L83.3183 2.04208V2.04208C83.5424 1.6449 83.9983 2.02833 83.9977 2.48437C83.9946 5.00777 83.9946 12.4983 83.9946 12.6114" fill="url(#paint9_linear_333_605)"/>
</svg>
