<svg width="24" height="24" viewBox="0 0 24 24" fill="none" xmlns="http://www.w3.org/2000/svg">
<defs>
<linearGradient id="paint0_linear_300_533" x1="11.9787" y1="6.44682" x2="16.0274" y2="11.2063" gradientUnits="userSpaceOnUse">
<stop offset="0.210486" stop-color="#8D5096"/>
<stop offset="1" stop-color="#CF6A9B"/>
</linearGradient>
<linearGradient id="paint1_linear_300_533" x1="14.2908" y1="13.315" x2="16.4698" y2="15.8782" gradientUnits="userSpaceOnUse">
<stop offset="0.210486" stop-color="#8D5096"/>
<stop offset="1" stop-color="#CF6A9B"/>
</linearGradient>
</defs>
<path d="M16.7857 10.8672L9.93756 15.0865C9.78418 15.1805 9.58782 15.1715 9.44422 15.0605C8.85974 14.6104 8.33123 14.1546 7.94865 13.757C7.86463 13.6697 7.78195 13.5814 7.69974 13.4924C7.58952 13.373 7.43312 13.1964 7.34582 13.0654C7.11234 12.7693 7 12.3823 7 12.0063C7 11.5843 7.12309 11.1853 7.36829 10.8662C7.42398 10.8092 7.63597 10.5582 7.83623 10.3532C9.00461 9.07715 12.0545 6.96905 13.6586 6.33002C13.8921 6.22701 14.5153 6.012 14.8387 6C15.1503 6 15.4512 6.068 15.7404 6.21701C16.096 6.42202 16.3744 6.74004 16.5307 7.11706C16.5502 7.16796 16.5719 7.23866 16.594 7.31969C16.75 7.8907 16.8458 8.48055 16.9054 9.06948C16.947 9.48112 16.9791 9.94903 16.9996 10.4572C17.0064 10.6222 16.9234 10.7822 16.7857 10.8672Z" fill="url(#paint0_linear_300_533)"/>
<path opacity="0.4" d="M16.3277 13.1397C16.6296 12.9527 17.0096 13.1917 16.995 13.5507C16.9834 13.8195 16.9692 14.0781 16.9527 14.3236C16.893 15.2114 16.8971 16.226 16.4743 17.0089C16.1626 17.6239 15.5511 18 14.8936 18H14.8389C13.9943 17.9781 13.0038 17.377 12.2709 16.9567C12.1266 16.874 11.9786 16.7867 11.8281 16.6959C11.5409 16.5219 11.534 16.0949 11.8213 15.9179L16.3277 13.1397Z" fill="url(#paint1_linear_300_533)"/>
</svg>
